<svg width="1728" height="1117" viewBox="0 0 1728 1117" fill="none" xmlns="http://www.w3.org/2000/svg">
<circle opacity="0.55" cx="864.5" cy="558.5" r="533.25" stroke="#F5F5F5" stroke-width="0.5"/>
<circle opacity="0.7" cx="864.5" cy="558.5" r="428.25" stroke="#F5F5F5" stroke-width="0.5"/>
<circle opacity="0.85" cx="865.5" cy="558.5" r="324.25" stroke="#F5F5F5" stroke-width="0.5"/>
<circle cx="865.5" cy="558.5" r="219.25" stroke="#F5F5F5" stroke-width="0.5"/>
<circle opacity="0.4" cx="864.5" cy="558.5" r="635.25" stroke="#F5F5F5" stroke-width="0.5"/>
<circle opacity="0.25" cx="864.5" cy="558.5" r="743.25" stroke="#F5F5F5" stroke-width="0.5"/>
<path opacity="0.1" d="M1709.75 558.5C1709.75 1025.87 1331.09 1404.75 864 1404.75C396.905 1404.75 18.25 1025.87 18.25 558.5C18.25 91.1289 396.905 -287.75 864 -287.75C1331.09 -287.75 1709.75 91.1289 1709.75 558.5Z" stroke="#F5F5F5" stroke-width="0.5"/>
<path opacity="0.05" d="M1819.75 558.5C1819.75 1086.62 1391.85 1514.75 864 1514.75C336.154 1514.75 -91.75 1086.62 -91.75 558.5C-91.75 30.3776 336.154 -397.75 864 -397.75C1391.85 -397.75 1819.75 30.3776 1819.75 558.5Z" stroke="#F5F5F5" stroke-width="0.5"/>
</svg>
