<svg width="12" height="12" viewBox="0 0 12 12" fill="none" xmlns="http://www.w3.org/2000/svg">
<path d="M1.70728 8.2698C2.19701 9.26 2.99129 10.0671 3.97349 10.5726C4.94865 11.0733 6.06048 11.2424 7.1404 11.0543C8.22366 10.8638 9.21611 10.3276 9.96926 9.52599C10.7294 8.7168 11.2133 7.6874 11.3516 6.5858C11.4919 5.48171 11.2804 4.36147 10.7472 3.38454C10.219 2.4152 9.39361 1.64106 8.39246 1.17608C7.39781 0.715375 6.28002 0.591801 5.20876 0.824111C4.13788 1.05625 3.25976 1.58419 2.53446 2.41895C2.25133 2.72736 2.01354 3.07451 1.82826 3.44996" stroke="#F5F5F5" stroke-linecap="round" stroke-linejoin="round"/>
<path d="M4.4073 3.49568L1.48988 4.02073L0.974121 1.05103" stroke="#F5F5F5" stroke-linecap="round" stroke-linejoin="round"/>
</svg>
