<svg width="157" height="41" viewBox="0 0 157 41" fill="none" xmlns="http://www.w3.org/2000/svg">
<path d="M0.24 30.3607C1.104 35.5447 4.608 40.2967 13.296 40.2967C21.264 40.2967 25.968 36.0727 25.968 30.1207C25.968 24.8407 22.368 21.5287 16.992 19.8007L12.144 18.2647C9.84 17.5447 8.4 16.4887 8.4 14.5687C8.4 12.4567 10.032 11.3047 12.816 11.3047C15.888 11.3047 17.904 13.2247 18.432 16.2007L18.48 17.0167L25.296 15.2887L25.248 14.4727C24.24 9.33674 20.16 5.68874 13.008 5.68874C6.144 5.68874 0.912 9.04874 0.912 15.2887C0.912 21.1927 5.136 23.9287 9.792 25.4647L13.92 26.8087C16.848 27.8167 18.144 28.8727 18.144 30.8887C18.144 33.0007 16.464 34.2967 13.488 34.2967C9.84 34.2967 7.824 32.4727 6.816 28.2007L6.624 27.3847L0 29.6887L0.24 30.3607Z" fill="#252524"/>
<path d="M39.0532 40.1047C46.0132 40.1047 51.0052 35.4487 51.0052 27.7207C51.0052 20.0887 46.0132 15.2407 39.0532 15.2407C32.1412 15.2407 27.1493 20.0407 27.1493 27.6727C27.1493 35.4007 32.0452 40.1047 39.0532 40.1047ZM39.0532 34.6327C36.2212 34.6327 34.7812 32.2327 34.7812 27.6727C34.7812 23.1607 36.2212 20.7127 39.0532 20.7127C41.9332 20.7127 43.3253 23.2567 43.3253 27.6727C43.3253 32.3287 41.9332 34.6327 39.0532 34.6327Z" fill="#252524"/>
<path d="M60.8302 39.5287V28.0567C60.8302 23.8807 62.6062 21.6247 65.4382 21.6247C67.6462 21.6247 68.6062 23.1607 68.6062 26.3767V39.5287H76.1423V28.0567C76.1423 23.8807 78.0142 21.6247 80.7982 21.6247C83.0542 21.6247 84.0143 23.1607 84.0143 26.3767V39.5287H91.5983V24.4567C91.5983 18.7447 88.8143 15.5287 84.1103 15.5287C80.0783 15.5287 77.1982 17.9287 75.8542 21.6247C75.0862 17.7847 72.7342 15.5287 68.7022 15.5287C64.8622 15.5287 61.8382 17.9287 60.6382 21.6727V16.0087H53.2943V39.5287H60.8302Z" fill="#252524"/>
<path d="M110.337 15.5287C106.305 15.5287 103.425 17.9767 102.177 21.7207V16.0087H94.833V39.5287H102.369V28.1527C102.369 23.8807 104.001 21.6247 107.025 21.6247C109.233 21.6247 110.289 23.1607 110.289 26.3287V39.5287H117.825V24.2647C117.825 19.0807 115.233 15.5287 110.337 15.5287Z" fill="#252524"/>
<path d="M128.674 39.5287V16.0087H121.09V39.5287H128.674Z" fill="#252524"/>
<path d="M154.961 34.8727C153.761 34.8727 153.041 34.2007 153.041 32.1367V24.8887C153.041 18.8407 149.201 15.2407 142.145 15.2407C136.096 15.2407 131.873 18.1207 131.489 22.6327L138.545 23.7367V23.2087C138.641 21.0007 139.936 19.7047 142.145 19.7047C144.929 19.7047 145.84 21.1927 145.84 23.5927V24.7447C145.072 24.6487 144.257 24.5047 142.769 24.5047C136.481 24.5047 131.201 26.8087 131.201 32.8567C131.201 37.5127 134.513 40.2007 138.977 40.2007C142.721 40.2007 145.505 38.1367 146.609 35.0647C146.945 37.9447 148.721 39.9607 152.609 39.9607C154.097 39.9607 155.537 39.6247 156.449 39.0967V34.6807C155.921 34.8247 155.489 34.8727 154.961 34.8727ZM141.569 35.2567C139.553 35.2567 138.545 34.1047 138.545 32.3767C138.545 29.4007 141.329 28.4407 144.449 28.4407C144.929 28.4407 145.361 28.4887 145.84 28.4887V29.8807C145.84 33.3367 144.113 35.2567 141.569 35.2567Z" fill="#252524"/>
<path d="M123.41 0.585538C123.314 0.0177263 124.096 -0.236323 124.351 0.279797L126.49 4.59723C126.588 4.79509 126.804 4.90524 127.022 4.86823L131.771 4.06057C132.339 3.96402 132.593 4.7459 132.077 5.00154L127.76 7.14001C127.562 7.23802 127.452 7.4542 127.489 7.67188L128.296 12.4217C128.393 12.9895 127.611 13.2436 127.355 12.7275L125.217 8.41003C125.119 8.21217 124.903 8.10202 124.685 8.13903L119.935 8.94669C119.367 9.04324 119.113 8.26136 119.629 8.00572L123.947 5.86724C124.145 5.76924 124.255 5.55305 124.218 5.33538L123.41 0.585538Z" fill="#252524"/>
<path d="M121.917 10.0434C122.017 9.71261 122.505 9.78552 122.504 10.1311L122.501 11.1936C122.501 11.3261 122.587 11.4431 122.714 11.4815L123.731 11.7895C124.062 11.8897 123.989 12.3775 123.643 12.3766L122.581 12.3738C122.448 12.3735 122.331 12.4601 122.293 12.5869L121.985 13.6038C121.885 13.9345 121.397 13.8616 121.398 13.516L121.401 12.4535C121.401 12.321 121.314 12.204 121.188 12.1656L120.171 11.8576C119.84 11.7575 119.913 11.2696 120.258 11.2705L121.321 11.2733C121.453 11.2736 121.57 11.1871 121.609 11.0603L121.917 10.0434Z" fill="#252524"/>
</svg>
