<svg width="1686" height="1036" viewBox="0 0 1686 1036" fill="none" xmlns="http://www.w3.org/2000/svg">
<g opacity="0.8" filter="url(#filter0_df_2_23)">
<path d="M165.511 50.7411C165.678 49.6014 167.322 49.6014 167.489 50.7411L169.272 62.8842C169.336 63.3211 169.679 63.6642 170.116 63.7284L182.259 65.5106C183.399 65.6779 183.399 67.3221 182.259 67.4894L170.116 69.2716C169.679 69.3358 169.336 69.6789 169.272 70.1158L167.489 82.2589C167.322 83.3986 165.678 83.3986 165.511 82.2589L163.728 70.1158C163.664 69.6789 163.321 69.3358 162.884 69.2716L150.741 67.4894C149.601 67.3221 149.601 65.6779 150.741 65.5106L162.884 63.7284C163.321 63.6642 163.664 63.3211 163.728 62.8842L165.511 50.7411Z" fill="#74CDFF"/>
</g>
<g opacity="0.8" filter="url(#filter1_df_2_23)">
<path d="M308.011 234.741C308.178 233.601 309.822 233.601 309.989 234.741L310.556 238.6C310.62 239.037 310.963 239.38 311.4 239.444L315.259 240.011C316.399 240.178 316.399 241.822 315.259 241.989L311.4 242.556C310.963 242.62 310.62 242.963 310.556 243.4L309.989 247.259C309.822 248.399 308.178 248.399 308.011 247.259L307.444 243.4C307.38 242.963 307.037 242.62 306.6 242.556L302.741 241.989C301.601 241.822 301.601 240.178 302.741 240.011L306.6 239.444C307.037 239.38 307.38 239.037 307.444 238.6L308.011 234.741Z" fill="#74CDFF"/>
</g>
<g opacity="0.8" filter="url(#filter2_df_2_23)">
<path d="M609.511 262.741C609.678 261.601 611.322 261.601 611.489 262.741L613.272 274.884C613.336 275.321 613.679 275.664 614.116 275.728L626.259 277.511C627.399 277.678 627.399 279.322 626.259 279.489L614.116 281.272C613.679 281.336 613.336 281.679 613.272 282.116L611.489 294.259C611.322 295.399 609.678 295.399 609.511 294.259L607.728 282.116C607.664 281.679 607.321 281.336 606.884 281.272L594.741 279.489C593.601 279.322 593.601 277.678 594.741 277.511L606.884 275.728C607.321 275.664 607.664 275.321 607.728 274.884L609.511 262.741Z" fill="#74CDFF"/>
</g>
<g opacity="0.8" filter="url(#filter3_df_2_23)">
<path d="M1051.51 828.741C1051.68 827.601 1053.32 827.601 1053.49 828.741L1055.27 840.884C1055.34 841.321 1055.68 841.664 1056.12 841.728L1068.26 843.511C1069.4 843.678 1069.4 845.322 1068.26 845.489L1056.12 847.272C1055.68 847.336 1055.34 847.679 1055.27 848.116L1053.49 860.259C1053.32 861.399 1051.68 861.399 1051.51 860.259L1049.73 848.116C1049.66 847.679 1049.32 847.336 1048.88 847.272L1036.74 845.489C1035.6 845.322 1035.6 843.678 1036.74 843.511L1048.88 841.728C1049.32 841.664 1049.66 841.321 1049.73 840.884L1051.51 828.741Z" fill="#74CDFF"/>
</g>
<g opacity="0.8" filter="url(#filter4_df_2_23)">
<path d="M1168.51 581.741C1168.68 580.601 1170.32 580.601 1170.49 581.741L1172.27 593.884C1172.34 594.321 1172.68 594.664 1173.12 594.728L1185.26 596.511C1186.4 596.678 1186.4 598.322 1185.26 598.489L1173.12 600.272C1172.68 600.336 1172.34 600.679 1172.27 601.116L1170.49 613.259C1170.32 614.399 1168.68 614.399 1168.51 613.259L1166.73 601.116C1166.66 600.679 1166.32 600.336 1165.88 600.272L1153.74 598.489C1152.6 598.322 1152.6 596.678 1153.74 596.511L1165.88 594.728C1166.32 594.664 1166.66 594.321 1166.73 593.884L1168.51 581.741Z" fill="#74CDFF"/>
</g>
<g opacity="0.8" filter="url(#filter5_df_2_23)">
<path d="M1293.75 846.11C1293.88 845.246 1295.12 845.246 1295.25 846.11C1295.3 846.441 1295.56 846.701 1295.89 846.75C1296.75 846.877 1296.75 848.123 1295.89 848.25C1295.56 848.299 1295.3 848.559 1295.25 848.89C1295.12 849.754 1293.88 849.754 1293.75 848.89C1293.7 848.559 1293.44 848.299 1293.11 848.25C1292.25 848.123 1292.25 846.877 1293.11 846.75C1293.44 846.701 1293.7 846.441 1293.75 846.11Z" fill="#74CDFF"/>
</g>
<g opacity="0.8" filter="url(#filter6_df_2_23)">
<path d="M1486.01 614.741C1486.18 613.601 1487.82 613.601 1487.99 614.741L1488.56 618.6C1488.62 619.037 1488.96 619.38 1489.4 619.444L1493.26 620.011C1494.4 620.178 1494.4 621.822 1493.26 621.989L1489.4 622.556C1488.96 622.62 1488.62 622.963 1488.56 623.4L1487.99 627.259C1487.82 628.399 1486.18 628.399 1486.01 627.259L1485.44 623.4C1485.38 622.963 1485.04 622.62 1484.6 622.556L1480.74 621.989C1479.6 621.822 1479.6 620.178 1480.74 620.011L1484.6 619.444C1485.04 619.38 1485.38 619.037 1485.44 618.6L1486.01 614.741Z" fill="#74CDFF"/>
</g>
<g opacity="0.8" filter="url(#filter7_df_2_23)">
<path d="M1672.01 381.741C1672.18 380.601 1673.82 380.601 1673.99 381.741L1674.56 385.6C1674.62 386.037 1674.96 386.38 1675.4 386.444L1679.26 387.011C1680.4 387.178 1680.4 388.822 1679.26 388.989L1675.4 389.556C1674.96 389.62 1674.62 389.963 1674.56 390.4L1673.99 394.259C1673.82 395.399 1672.18 395.399 1672.01 394.259L1671.44 390.4C1671.38 389.963 1671.04 389.62 1670.6 389.556L1666.74 388.989C1665.6 388.822 1665.6 387.178 1666.74 387.011L1670.6 386.444C1671.04 386.38 1671.38 386.037 1671.44 385.6L1672.01 381.741Z" fill="#74CDFF"/>
</g>
<g opacity="0.8" filter="url(#filter8_df_2_23)">
<path d="M1290.51 143.741C1290.68 142.601 1292.32 142.601 1292.49 143.741L1294.27 155.884C1294.34 156.321 1294.68 156.664 1295.12 156.728L1307.26 158.511C1308.4 158.678 1308.4 160.322 1307.26 160.489L1295.12 162.272C1294.68 162.336 1294.34 162.679 1294.27 163.116L1292.49 175.259C1292.32 176.399 1290.68 176.399 1290.51 175.259L1288.73 163.116C1288.66 162.679 1288.32 162.336 1287.88 162.272L1275.74 160.489C1274.6 160.322 1274.6 158.678 1275.74 158.511L1287.88 156.728C1288.32 156.664 1288.66 156.321 1288.73 155.884L1290.51 143.741Z" fill="#74CDFF"/>
</g>
<g opacity="0.8" filter="url(#filter9_df_2_23)">
<path d="M876.011 704.741C876.178 703.601 877.822 703.601 877.989 704.741L878.556 708.6C878.62 709.037 878.963 709.38 879.4 709.444L883.259 710.011C884.399 710.178 884.399 711.822 883.259 711.989L879.4 712.556C878.963 712.62 878.62 712.963 878.556 713.4L877.989 717.259C877.822 718.399 876.178 718.399 876.011 717.259L875.444 713.4C875.38 712.963 875.037 712.62 874.6 712.556L870.741 711.989C869.601 711.822 869.601 710.178 870.741 710.011L874.6 709.444C875.037 709.38 875.38 709.037 875.444 708.6L876.011 704.741Z" fill="#74CDFF"/>
</g>
<g opacity="0.8" filter="url(#filter10_df_2_23)">
<path d="M1615.01 1016.74C1615.18 1015.6 1616.82 1015.6 1616.99 1016.74L1617.56 1020.6C1617.62 1021.04 1617.96 1021.38 1618.4 1021.44L1622.26 1022.01C1623.4 1022.18 1623.4 1023.82 1622.26 1023.99L1618.4 1024.56C1617.96 1024.62 1617.62 1024.96 1617.56 1025.4L1616.99 1029.26C1616.82 1030.4 1615.18 1030.4 1615.01 1029.26L1614.44 1025.4C1614.38 1024.96 1614.04 1024.62 1613.6 1024.56L1609.74 1023.99C1608.6 1023.82 1608.6 1022.18 1609.74 1022.01L1613.6 1021.44C1614.04 1021.38 1614.38 1021.04 1614.44 1020.6L1615.01 1016.74Z" fill="#74CDFF"/>
</g>
<g opacity="0.8" filter="url(#filter11_df_2_23)">
<path d="M295.011 768.741C295.178 767.601 296.822 767.601 296.989 768.741L297.556 772.6C297.62 773.037 297.963 773.38 298.4 773.444L302.259 774.011C303.399 774.178 303.399 775.822 302.259 775.989L298.4 776.556C297.963 776.62 297.62 776.963 297.556 777.4L296.989 781.259C296.822 782.399 295.178 782.399 295.011 781.259L294.444 777.4C294.38 776.963 294.037 776.62 293.6 776.556L289.741 775.989C288.601 775.822 288.601 774.178 289.741 774.011L293.6 773.444C294.037 773.38 294.38 773.037 294.444 772.6L295.011 768.741Z" fill="#74CDFF"/>
</g>
<g opacity="0.8" filter="url(#filter12_df_2_23)">
<path d="M12.0106 477.741C12.1779 476.601 13.8221 476.601 13.9894 477.741L14.5558 481.6C14.6199 482.037 14.963 482.38 15.4 482.444L19.2589 483.011C20.3986 483.178 20.3986 484.822 19.2589 484.989L15.4 485.556C14.963 485.62 14.6199 485.963 14.5558 486.4L13.9894 490.259C13.8221 491.399 12.1779 491.399 12.0106 490.259L11.4442 486.4C11.3801 485.963 11.037 485.62 10.6 485.556L6.74111 484.989C5.6014 484.822 5.6014 483.178 6.74111 483.011L10.6 482.444C11.037 482.38 11.3801 482.037 11.4442 481.6L12.0106 477.741Z" fill="#74CDFF"/>
</g>
<g opacity="0.8" filter="url(#filter13_df_2_23)">
<path d="M255.011 567.741C255.178 566.601 256.822 566.601 256.989 567.741L257.556 571.6C257.62 572.037 257.963 572.38 258.4 572.444L262.259 573.011C263.399 573.178 263.399 574.822 262.259 574.989L258.4 575.556C257.963 575.62 257.62 575.963 257.556 576.4L256.989 580.259C256.822 581.399 255.178 581.399 255.011 580.259L254.444 576.4C254.38 575.963 254.037 575.62 253.6 575.556L249.741 574.989C248.601 574.822 248.601 573.178 249.741 573.011L253.6 572.444C254.037 572.38 254.38 572.037 254.444 571.6L255.011 567.741Z" fill="#74CDFF"/>
</g>
<g opacity="0.8" filter="url(#filter14_df_2_23)">
<path d="M622.511 506.741C622.678 505.601 624.322 505.601 624.489 506.741L626.272 518.884C626.336 519.321 626.679 519.664 627.116 519.728L639.259 521.511C640.399 521.678 640.399 523.322 639.259 523.489L627.116 525.272C626.679 525.336 626.336 525.679 626.272 526.116L624.489 538.259C624.322 539.399 622.678 539.399 622.511 538.259L620.728 526.116C620.664 525.679 620.321 525.336 619.884 525.272L607.741 523.489C606.601 523.322 606.601 521.678 607.741 521.511L619.884 519.728C620.321 519.664 620.664 519.321 620.728 518.884L622.511 506.741Z" fill="#74CDFF"/>
</g>
<g opacity="0.8" filter="url(#filter15_df_2_23)">
<path d="M581.011 873.741C581.178 872.601 582.822 872.601 582.989 873.741L583.556 877.6C583.62 878.037 583.963 878.38 584.4 878.444L588.259 879.011C589.399 879.178 589.399 880.822 588.259 880.989L584.4 881.556C583.963 881.62 583.62 881.963 583.556 882.4L582.989 886.259C582.822 887.399 581.178 887.399 581.011 886.259L580.444 882.4C580.38 881.963 580.037 881.62 579.6 881.556L575.741 880.989C574.601 880.822 574.601 879.178 575.741 879.011L579.6 878.444C580.037 878.38 580.38 878.037 580.444 877.6L581.011 873.741Z" fill="#74CDFF"/>
</g>
<g opacity="0.8" filter="url(#filter16_df_2_23)">
<path d="M95.75 974.11C95.8768 973.246 97.1232 973.246 97.25 974.11C97.2986 974.441 97.5587 974.701 97.8899 974.75C98.7539 974.877 98.7539 976.123 97.8899 976.25C97.5587 976.299 97.2986 976.559 97.25 976.89C97.1232 977.754 95.8768 977.754 95.75 976.89C95.7014 976.559 95.4413 976.299 95.1101 976.25C94.2461 976.123 94.2461 974.877 95.1101 974.75C95.4413 974.701 95.7014 974.441 95.75 974.11Z" fill="#74CDFF"/>
</g>
<g opacity="0.8" filter="url(#filter17_df_2_23)">
<path d="M921.75 107.11C921.877 106.246 923.123 106.246 923.25 107.11C923.299 107.441 923.559 107.701 923.89 107.75C924.754 107.877 924.754 109.123 923.89 109.25C923.559 109.299 923.299 109.559 923.25 109.89C923.123 110.754 921.877 110.754 921.75 109.89C921.701 109.559 921.441 109.299 921.11 109.25C920.246 109.123 920.246 107.877 921.11 107.75C921.441 107.701 921.701 107.441 921.75 107.11Z" fill="#74CDFF"/>
</g>
<g opacity="0.8" filter="url(#filter18_df_2_23)">
<path d="M1326.01 426.741C1326.18 425.601 1327.82 425.601 1327.99 426.741L1328.56 430.6C1328.62 431.037 1328.96 431.38 1329.4 431.444L1333.26 432.011C1334.4 432.178 1334.4 433.822 1333.26 433.989L1329.4 434.556C1328.96 434.62 1328.62 434.963 1328.56 435.4L1327.99 439.259C1327.82 440.399 1326.18 440.399 1326.01 439.259L1325.44 435.4C1325.38 434.963 1325.04 434.62 1324.6 434.556L1320.74 433.989C1319.6 433.822 1319.6 432.178 1320.74 432.011L1324.6 431.444C1325.04 431.38 1325.38 431.037 1325.44 430.6L1326.01 426.741Z" fill="#74CDFF"/>
</g>
<g opacity="0.8" filter="url(#filter19_df_2_23)">
<path d="M1614.75 5.11006C1614.88 4.24611 1616.12 4.24611 1616.25 5.11006C1616.3 5.44127 1616.56 5.70138 1616.89 5.74999C1617.75 5.87679 1617.75 7.12321 1616.89 7.25001C1616.56 7.29862 1616.3 7.55873 1616.25 7.88994C1616.12 8.75389 1614.88 8.75389 1614.75 7.88994C1614.7 7.55873 1614.44 7.29862 1614.11 7.25001C1613.25 7.12321 1613.25 5.87679 1614.11 5.74999C1614.44 5.70138 1614.7 5.44127 1614.75 5.11006Z" fill="#74CDFF"/>
</g>
<defs>
<filter id="filter0_df_2_23" x="145.886" y="45.8863" width="41.2273" height="41.2274" filterUnits="userSpaceOnUse" color-interpolation-filters="sRGB">
<feFlood flood-opacity="0" result="BackgroundImageFix"/>
<feColorMatrix in="SourceAlpha" type="matrix" values="0 0 0 0 0 0 0 0 0 0 0 0 0 0 0 0 0 0 127 0" result="hardAlpha"/>
<feOffset/>
<feGaussianBlur stdDeviation="2"/>
<feComposite in2="hardAlpha" operator="out"/>
<feColorMatrix type="matrix" values="0 0 0 0 0.308927 0 0 0 0 0.378034 0 0 0 0 1 0 0 0 1 0"/>
<feBlend mode="normal" in2="BackgroundImageFix" result="effect1_dropShadow_2_23"/>
<feBlend mode="normal" in="SourceGraphic" in2="effect1_dropShadow_2_23" result="shape"/>
<feGaussianBlur stdDeviation="0.5" result="effect2_foregroundBlur_2_23"/>
</filter>
<filter id="filter1_df_2_23" x="297.886" y="229.886" width="22.2273" height="22.2274" filterUnits="userSpaceOnUse" color-interpolation-filters="sRGB">
<feFlood flood-opacity="0" result="BackgroundImageFix"/>
<feColorMatrix in="SourceAlpha" type="matrix" values="0 0 0 0 0 0 0 0 0 0 0 0 0 0 0 0 0 0 127 0" result="hardAlpha"/>
<feOffset/>
<feGaussianBlur stdDeviation="2"/>
<feComposite in2="hardAlpha" operator="out"/>
<feColorMatrix type="matrix" values="0 0 0 0 0.308927 0 0 0 0 0.378034 0 0 0 0 1 0 0 0 1 0"/>
<feBlend mode="normal" in2="BackgroundImageFix" result="effect1_dropShadow_2_23"/>
<feBlend mode="normal" in="SourceGraphic" in2="effect1_dropShadow_2_23" result="shape"/>
<feGaussianBlur stdDeviation="0.5" result="effect2_foregroundBlur_2_23"/>
</filter>
<filter id="filter2_df_2_23" x="589.886" y="257.886" width="41.2273" height="41.2273" filterUnits="userSpaceOnUse" color-interpolation-filters="sRGB">
<feFlood flood-opacity="0" result="BackgroundImageFix"/>
<feColorMatrix in="SourceAlpha" type="matrix" values="0 0 0 0 0 0 0 0 0 0 0 0 0 0 0 0 0 0 127 0" result="hardAlpha"/>
<feOffset/>
<feGaussianBlur stdDeviation="2"/>
<feComposite in2="hardAlpha" operator="out"/>
<feColorMatrix type="matrix" values="0 0 0 0 0.308927 0 0 0 0 0.378034 0 0 0 0 1 0 0 0 1 0"/>
<feBlend mode="normal" in2="BackgroundImageFix" result="effect1_dropShadow_2_23"/>
<feBlend mode="normal" in="SourceGraphic" in2="effect1_dropShadow_2_23" result="shape"/>
<feGaussianBlur stdDeviation="0.5" result="effect2_foregroundBlur_2_23"/>
</filter>
<filter id="filter3_df_2_23" x="1031.89" y="823.886" width="41.2273" height="41.2274" filterUnits="userSpaceOnUse" color-interpolation-filters="sRGB">
<feFlood flood-opacity="0" result="BackgroundImageFix"/>
<feColorMatrix in="SourceAlpha" type="matrix" values="0 0 0 0 0 0 0 0 0 0 0 0 0 0 0 0 0 0 127 0" result="hardAlpha"/>
<feOffset/>
<feGaussianBlur stdDeviation="2"/>
<feComposite in2="hardAlpha" operator="out"/>
<feColorMatrix type="matrix" values="0 0 0 0 0.308927 0 0 0 0 0.378034 0 0 0 0 1 0 0 0 1 0"/>
<feBlend mode="normal" in2="BackgroundImageFix" result="effect1_dropShadow_2_23"/>
<feBlend mode="normal" in="SourceGraphic" in2="effect1_dropShadow_2_23" result="shape"/>
<feGaussianBlur stdDeviation="0.5" result="effect2_foregroundBlur_2_23"/>
</filter>
<filter id="filter4_df_2_23" x="1148.89" y="576.886" width="41.2274" height="41.2273" filterUnits="userSpaceOnUse" color-interpolation-filters="sRGB">
<feFlood flood-opacity="0" result="BackgroundImageFix"/>
<feColorMatrix in="SourceAlpha" type="matrix" values="0 0 0 0 0 0 0 0 0 0 0 0 0 0 0 0 0 0 127 0" result="hardAlpha"/>
<feOffset/>
<feGaussianBlur stdDeviation="2"/>
<feComposite in2="hardAlpha" operator="out"/>
<feColorMatrix type="matrix" values="0 0 0 0 0.308927 0 0 0 0 0.378034 0 0 0 0 1 0 0 0 1 0"/>
<feBlend mode="normal" in2="BackgroundImageFix" result="effect1_dropShadow_2_23"/>
<feBlend mode="normal" in="SourceGraphic" in2="effect1_dropShadow_2_23" result="shape"/>
<feGaussianBlur stdDeviation="0.5" result="effect2_foregroundBlur_2_23"/>
</filter>
<filter id="filter5_df_2_23" x="1288.46" y="841.462" width="12.0758" height="12.0758" filterUnits="userSpaceOnUse" color-interpolation-filters="sRGB">
<feFlood flood-opacity="0" result="BackgroundImageFix"/>
<feColorMatrix in="SourceAlpha" type="matrix" values="0 0 0 0 0 0 0 0 0 0 0 0 0 0 0 0 0 0 127 0" result="hardAlpha"/>
<feOffset/>
<feGaussianBlur stdDeviation="2"/>
<feComposite in2="hardAlpha" operator="out"/>
<feColorMatrix type="matrix" values="0 0 0 0 0.308927 0 0 0 0 0.378034 0 0 0 0 1 0 0 0 1 0"/>
<feBlend mode="normal" in2="BackgroundImageFix" result="effect1_dropShadow_2_23"/>
<feBlend mode="normal" in="SourceGraphic" in2="effect1_dropShadow_2_23" result="shape"/>
<feGaussianBlur stdDeviation="0.5" result="effect2_foregroundBlur_2_23"/>
</filter>
<filter id="filter6_df_2_23" x="1475.89" y="609.886" width="22.2273" height="22.2273" filterUnits="userSpaceOnUse" color-interpolation-filters="sRGB">
<feFlood flood-opacity="0" result="BackgroundImageFix"/>
<feColorMatrix in="SourceAlpha" type="matrix" values="0 0 0 0 0 0 0 0 0 0 0 0 0 0 0 0 0 0 127 0" result="hardAlpha"/>
<feOffset/>
<feGaussianBlur stdDeviation="2"/>
<feComposite in2="hardAlpha" operator="out"/>
<feColorMatrix type="matrix" values="0 0 0 0 0.308927 0 0 0 0 0.378034 0 0 0 0 1 0 0 0 1 0"/>
<feBlend mode="normal" in2="BackgroundImageFix" result="effect1_dropShadow_2_23"/>
<feBlend mode="normal" in="SourceGraphic" in2="effect1_dropShadow_2_23" result="shape"/>
<feGaussianBlur stdDeviation="0.5" result="effect2_foregroundBlur_2_23"/>
</filter>
<filter id="filter7_df_2_23" x="1661.89" y="376.886" width="22.2273" height="22.2273" filterUnits="userSpaceOnUse" color-interpolation-filters="sRGB">
<feFlood flood-opacity="0" result="BackgroundImageFix"/>
<feColorMatrix in="SourceAlpha" type="matrix" values="0 0 0 0 0 0 0 0 0 0 0 0 0 0 0 0 0 0 127 0" result="hardAlpha"/>
<feOffset/>
<feGaussianBlur stdDeviation="2"/>
<feComposite in2="hardAlpha" operator="out"/>
<feColorMatrix type="matrix" values="0 0 0 0 0.308927 0 0 0 0 0.378034 0 0 0 0 1 0 0 0 1 0"/>
<feBlend mode="normal" in2="BackgroundImageFix" result="effect1_dropShadow_2_23"/>
<feBlend mode="normal" in="SourceGraphic" in2="effect1_dropShadow_2_23" result="shape"/>
<feGaussianBlur stdDeviation="0.5" result="effect2_foregroundBlur_2_23"/>
</filter>
<filter id="filter8_df_2_23" x="1270.89" y="138.886" width="41.2274" height="41.2274" filterUnits="userSpaceOnUse" color-interpolation-filters="sRGB">
<feFlood flood-opacity="0" result="BackgroundImageFix"/>
<feColorMatrix in="SourceAlpha" type="matrix" values="0 0 0 0 0 0 0 0 0 0 0 0 0 0 0 0 0 0 127 0" result="hardAlpha"/>
<feOffset/>
<feGaussianBlur stdDeviation="2"/>
<feComposite in2="hardAlpha" operator="out"/>
<feColorMatrix type="matrix" values="0 0 0 0 0.308927 0 0 0 0 0.378034 0 0 0 0 1 0 0 0 1 0"/>
<feBlend mode="normal" in2="BackgroundImageFix" result="effect1_dropShadow_2_23"/>
<feBlend mode="normal" in="SourceGraphic" in2="effect1_dropShadow_2_23" result="shape"/>
<feGaussianBlur stdDeviation="0.5" result="effect2_foregroundBlur_2_23"/>
</filter>
<filter id="filter9_df_2_23" x="865.886" y="699.886" width="22.2273" height="22.2274" filterUnits="userSpaceOnUse" color-interpolation-filters="sRGB">
<feFlood flood-opacity="0" result="BackgroundImageFix"/>
<feColorMatrix in="SourceAlpha" type="matrix" values="0 0 0 0 0 0 0 0 0 0 0 0 0 0 0 0 0 0 127 0" result="hardAlpha"/>
<feOffset/>
<feGaussianBlur stdDeviation="2"/>
<feComposite in2="hardAlpha" operator="out"/>
<feColorMatrix type="matrix" values="0 0 0 0 0.308927 0 0 0 0 0.378034 0 0 0 0 1 0 0 0 1 0"/>
<feBlend mode="normal" in2="BackgroundImageFix" result="effect1_dropShadow_2_23"/>
<feBlend mode="normal" in="SourceGraphic" in2="effect1_dropShadow_2_23" result="shape"/>
<feGaussianBlur stdDeviation="0.5" result="effect2_foregroundBlur_2_23"/>
</filter>
<filter id="filter10_df_2_23" x="1604.89" y="1011.89" width="22.2273" height="22.2273" filterUnits="userSpaceOnUse" color-interpolation-filters="sRGB">
<feFlood flood-opacity="0" result="BackgroundImageFix"/>
<feColorMatrix in="SourceAlpha" type="matrix" values="0 0 0 0 0 0 0 0 0 0 0 0 0 0 0 0 0 0 127 0" result="hardAlpha"/>
<feOffset/>
<feGaussianBlur stdDeviation="2"/>
<feComposite in2="hardAlpha" operator="out"/>
<feColorMatrix type="matrix" values="0 0 0 0 0.308927 0 0 0 0 0.378034 0 0 0 0 1 0 0 0 1 0"/>
<feBlend mode="normal" in2="BackgroundImageFix" result="effect1_dropShadow_2_23"/>
<feBlend mode="normal" in="SourceGraphic" in2="effect1_dropShadow_2_23" result="shape"/>
<feGaussianBlur stdDeviation="0.5" result="effect2_foregroundBlur_2_23"/>
</filter>
<filter id="filter11_df_2_23" x="284.886" y="763.886" width="22.2273" height="22.2274" filterUnits="userSpaceOnUse" color-interpolation-filters="sRGB">
<feFlood flood-opacity="0" result="BackgroundImageFix"/>
<feColorMatrix in="SourceAlpha" type="matrix" values="0 0 0 0 0 0 0 0 0 0 0 0 0 0 0 0 0 0 127 0" result="hardAlpha"/>
<feOffset/>
<feGaussianBlur stdDeviation="2"/>
<feComposite in2="hardAlpha" operator="out"/>
<feColorMatrix type="matrix" values="0 0 0 0 0.308927 0 0 0 0 0.378034 0 0 0 0 1 0 0 0 1 0"/>
<feBlend mode="normal" in2="BackgroundImageFix" result="effect1_dropShadow_2_23"/>
<feBlend mode="normal" in="SourceGraphic" in2="effect1_dropShadow_2_23" result="shape"/>
<feGaussianBlur stdDeviation="0.5" result="effect2_foregroundBlur_2_23"/>
</filter>
<filter id="filter12_df_2_23" x="1.88635" y="472.886" width="22.2273" height="22.2273" filterUnits="userSpaceOnUse" color-interpolation-filters="sRGB">
<feFlood flood-opacity="0" result="BackgroundImageFix"/>
<feColorMatrix in="SourceAlpha" type="matrix" values="0 0 0 0 0 0 0 0 0 0 0 0 0 0 0 0 0 0 127 0" result="hardAlpha"/>
<feOffset/>
<feGaussianBlur stdDeviation="2"/>
<feComposite in2="hardAlpha" operator="out"/>
<feColorMatrix type="matrix" values="0 0 0 0 0.308927 0 0 0 0 0.378034 0 0 0 0 1 0 0 0 1 0"/>
<feBlend mode="normal" in2="BackgroundImageFix" result="effect1_dropShadow_2_23"/>
<feBlend mode="normal" in="SourceGraphic" in2="effect1_dropShadow_2_23" result="shape"/>
<feGaussianBlur stdDeviation="0.5" result="effect2_foregroundBlur_2_23"/>
</filter>
<filter id="filter13_df_2_23" x="244.886" y="562.886" width="22.2273" height="22.2273" filterUnits="userSpaceOnUse" color-interpolation-filters="sRGB">
<feFlood flood-opacity="0" result="BackgroundImageFix"/>
<feColorMatrix in="SourceAlpha" type="matrix" values="0 0 0 0 0 0 0 0 0 0 0 0 0 0 0 0 0 0 127 0" result="hardAlpha"/>
<feOffset/>
<feGaussianBlur stdDeviation="2"/>
<feComposite in2="hardAlpha" operator="out"/>
<feColorMatrix type="matrix" values="0 0 0 0 0.308927 0 0 0 0 0.378034 0 0 0 0 1 0 0 0 1 0"/>
<feBlend mode="normal" in2="BackgroundImageFix" result="effect1_dropShadow_2_23"/>
<feBlend mode="normal" in="SourceGraphic" in2="effect1_dropShadow_2_23" result="shape"/>
<feGaussianBlur stdDeviation="0.5" result="effect2_foregroundBlur_2_23"/>
</filter>
<filter id="filter14_df_2_23" x="602.886" y="501.886" width="41.2273" height="41.2273" filterUnits="userSpaceOnUse" color-interpolation-filters="sRGB">
<feFlood flood-opacity="0" result="BackgroundImageFix"/>
<feColorMatrix in="SourceAlpha" type="matrix" values="0 0 0 0 0 0 0 0 0 0 0 0 0 0 0 0 0 0 127 0" result="hardAlpha"/>
<feOffset/>
<feGaussianBlur stdDeviation="2"/>
<feComposite in2="hardAlpha" operator="out"/>
<feColorMatrix type="matrix" values="0 0 0 0 0.308927 0 0 0 0 0.378034 0 0 0 0 1 0 0 0 1 0"/>
<feBlend mode="normal" in2="BackgroundImageFix" result="effect1_dropShadow_2_23"/>
<feBlend mode="normal" in="SourceGraphic" in2="effect1_dropShadow_2_23" result="shape"/>
<feGaussianBlur stdDeviation="0.5" result="effect2_foregroundBlur_2_23"/>
</filter>
<filter id="filter15_df_2_23" x="570.886" y="868.886" width="22.2274" height="22.2274" filterUnits="userSpaceOnUse" color-interpolation-filters="sRGB">
<feFlood flood-opacity="0" result="BackgroundImageFix"/>
<feColorMatrix in="SourceAlpha" type="matrix" values="0 0 0 0 0 0 0 0 0 0 0 0 0 0 0 0 0 0 127 0" result="hardAlpha"/>
<feOffset/>
<feGaussianBlur stdDeviation="2"/>
<feComposite in2="hardAlpha" operator="out"/>
<feColorMatrix type="matrix" values="0 0 0 0 0.308927 0 0 0 0 0.378034 0 0 0 0 1 0 0 0 1 0"/>
<feBlend mode="normal" in2="BackgroundImageFix" result="effect1_dropShadow_2_23"/>
<feBlend mode="normal" in="SourceGraphic" in2="effect1_dropShadow_2_23" result="shape"/>
<feGaussianBlur stdDeviation="0.5" result="effect2_foregroundBlur_2_23"/>
</filter>
<filter id="filter16_df_2_23" x="90.4621" y="969.462" width="12.0758" height="12.0758" filterUnits="userSpaceOnUse" color-interpolation-filters="sRGB">
<feFlood flood-opacity="0" result="BackgroundImageFix"/>
<feColorMatrix in="SourceAlpha" type="matrix" values="0 0 0 0 0 0 0 0 0 0 0 0 0 0 0 0 0 0 127 0" result="hardAlpha"/>
<feOffset/>
<feGaussianBlur stdDeviation="2"/>
<feComposite in2="hardAlpha" operator="out"/>
<feColorMatrix type="matrix" values="0 0 0 0 0.308927 0 0 0 0 0.378034 0 0 0 0 1 0 0 0 1 0"/>
<feBlend mode="normal" in2="BackgroundImageFix" result="effect1_dropShadow_2_23"/>
<feBlend mode="normal" in="SourceGraphic" in2="effect1_dropShadow_2_23" result="shape"/>
<feGaussianBlur stdDeviation="0.5" result="effect2_foregroundBlur_2_23"/>
</filter>
<filter id="filter17_df_2_23" x="916.462" y="102.462" width="12.0758" height="12.0758" filterUnits="userSpaceOnUse" color-interpolation-filters="sRGB">
<feFlood flood-opacity="0" result="BackgroundImageFix"/>
<feColorMatrix in="SourceAlpha" type="matrix" values="0 0 0 0 0 0 0 0 0 0 0 0 0 0 0 0 0 0 127 0" result="hardAlpha"/>
<feOffset/>
<feGaussianBlur stdDeviation="2"/>
<feComposite in2="hardAlpha" operator="out"/>
<feColorMatrix type="matrix" values="0 0 0 0 0.308927 0 0 0 0 0.378034 0 0 0 0 1 0 0 0 1 0"/>
<feBlend mode="normal" in2="BackgroundImageFix" result="effect1_dropShadow_2_23"/>
<feBlend mode="normal" in="SourceGraphic" in2="effect1_dropShadow_2_23" result="shape"/>
<feGaussianBlur stdDeviation="0.5" result="effect2_foregroundBlur_2_23"/>
</filter>
<filter id="filter18_df_2_23" x="1315.89" y="421.886" width="22.2274" height="22.2273" filterUnits="userSpaceOnUse" color-interpolation-filters="sRGB">
<feFlood flood-opacity="0" result="BackgroundImageFix"/>
<feColorMatrix in="SourceAlpha" type="matrix" values="0 0 0 0 0 0 0 0 0 0 0 0 0 0 0 0 0 0 127 0" result="hardAlpha"/>
<feOffset/>
<feGaussianBlur stdDeviation="2"/>
<feComposite in2="hardAlpha" operator="out"/>
<feColorMatrix type="matrix" values="0 0 0 0 0.308927 0 0 0 0 0.378034 0 0 0 0 1 0 0 0 1 0"/>
<feBlend mode="normal" in2="BackgroundImageFix" result="effect1_dropShadow_2_23"/>
<feBlend mode="normal" in="SourceGraphic" in2="effect1_dropShadow_2_23" result="shape"/>
<feGaussianBlur stdDeviation="0.5" result="effect2_foregroundBlur_2_23"/>
</filter>
<filter id="filter19_df_2_23" x="1609.46" y="0.462097" width="12.0758" height="12.0758" filterUnits="userSpaceOnUse" color-interpolation-filters="sRGB">
<feFlood flood-opacity="0" result="BackgroundImageFix"/>
<feColorMatrix in="SourceAlpha" type="matrix" values="0 0 0 0 0 0 0 0 0 0 0 0 0 0 0 0 0 0 127 0" result="hardAlpha"/>
<feOffset/>
<feGaussianBlur stdDeviation="2"/>
<feComposite in2="hardAlpha" operator="out"/>
<feColorMatrix type="matrix" values="0 0 0 0 0.308927 0 0 0 0 0.378034 0 0 0 0 1 0 0 0 1 0"/>
<feBlend mode="normal" in2="BackgroundImageFix" result="effect1_dropShadow_2_23"/>
<feBlend mode="normal" in="SourceGraphic" in2="effect1_dropShadow_2_23" result="shape"/>
<feGaussianBlur stdDeviation="0.5" result="effect2_foregroundBlur_2_23"/>
</filter>
</defs>
</svg>
